<svg width="320" height="461" viewBox="0 0 320 461" fill="none" xmlns="http://www.w3.org/2000/svg">
<rect width="320" height="461" fill="#EEEEEE"/>
<g clip-path="url(#clip0_555_2)">
<rect width="320" height="6640" transform="translate(0 -3113)" fill="white"/>
<circle cx="106" cy="457" r="6" fill="#F76201"/>
<circle cx="142" cy="457" r="6" fill="#999999"/>
<circle cx="178" cy="457" r="6" fill="#999999"/>
<circle cx="214" cy="457" r="6" fill="#999999"/>
<g filter="url(#filter0_d_555_2)">
<path d="M16 58C16 53.5817 19.5817 50 24 50H296C300.418 50 304 53.5817 304 58V401C304 406.523 299.523 411 294 411H26C20.4771 411 16 406.523 16 401V58Z" fill="white"/>
</g>
<path d="M49.44 124.816H48.688V130H47.36V118.8H48.688V124.016L49.408 123.792L53.168 118.8H54.704L50.96 123.616L50.288 124.144L51.104 124.784L55.2 130H53.52L49.44 124.816ZM56.8696 122.592C57.275 122.347 57.7443 122.165 58.2776 122.048C58.8216 121.931 59.387 121.872 59.9736 121.872C60.5283 121.872 60.971 121.947 61.3016 122.096C61.643 122.245 61.899 122.443 62.0696 122.688C62.251 122.923 62.3683 123.184 62.4216 123.472C62.4856 123.76 62.5176 124.048 62.5176 124.336C62.5176 124.976 62.5016 125.6 62.4696 126.208C62.4376 126.816 62.4216 127.392 62.4216 127.936C62.4216 128.331 62.4376 128.704 62.4696 129.056C62.5016 129.408 62.5603 129.733 62.6456 130.032H61.7016L61.3656 128.912H61.2856C61.1896 129.061 61.067 129.211 60.9176 129.36C60.779 129.499 60.6083 129.627 60.4056 129.744C60.203 129.851 59.9683 129.941 59.7016 130.016C59.435 130.091 59.131 130.128 58.7896 130.128C58.4483 130.128 58.1283 130.075 57.8296 129.968C57.5416 129.861 57.291 129.712 57.0776 129.52C56.8643 129.317 56.6936 129.077 56.5656 128.8C56.4483 128.523 56.3896 128.208 56.3896 127.856C56.3896 127.387 56.4856 126.997 56.6776 126.688C56.8696 126.368 57.1363 126.117 57.4776 125.936C57.8296 125.744 58.2456 125.611 58.7256 125.536C59.2163 125.451 59.755 125.408 60.3416 125.408C60.491 125.408 60.635 125.408 60.7736 125.408C60.923 125.408 61.0723 125.419 61.2216 125.44C61.2536 125.12 61.2696 124.832 61.2696 124.576C61.2696 123.989 61.1523 123.579 60.9176 123.344C60.683 123.109 60.2563 122.992 59.6376 122.992C59.4563 122.992 59.259 123.008 59.0456 123.04C58.843 123.061 58.6296 123.099 58.4056 123.152C58.1923 123.195 57.9843 123.253 57.7816 123.328C57.5896 123.392 57.419 123.467 57.2696 123.552L56.8696 122.592ZM59.1416 129.008C59.4403 129.008 59.707 128.971 59.9416 128.896C60.1763 128.811 60.379 128.709 60.5496 128.592C60.7203 128.464 60.859 128.325 60.9656 128.176C61.083 128.027 61.1683 127.883 61.2216 127.744V126.416C61.0723 126.405 60.9176 126.4 60.7576 126.4C60.6083 126.389 60.459 126.384 60.3096 126.384C59.979 126.384 59.6536 126.405 59.3336 126.448C59.0243 126.48 58.747 126.549 58.5016 126.656C58.267 126.752 58.075 126.891 57.9256 127.072C57.787 127.243 57.7176 127.461 57.7176 127.728C57.7176 128.101 57.851 128.411 58.1176 128.656C58.3843 128.891 58.7256 129.008 59.1416 129.008ZM72.0071 132.032H71.1431L70.9031 130H64.8871L64.6471 132.032H63.7831V128.88H64.7271C64.8125 128.763 64.9245 128.555 65.0631 128.256C65.2018 127.947 65.3351 127.52 65.4631 126.976C65.6018 126.421 65.7191 125.739 65.8151 124.928C65.9218 124.107 65.9858 123.131 66.0071 122H70.8391V128.88H72.0071V132.032ZM69.5591 128.88V123.12H67.1591C67.1378 123.568 67.1005 124.059 67.0471 124.592C66.9938 125.115 66.9191 125.643 66.8231 126.176C66.7378 126.699 66.6258 127.195 66.4871 127.664C66.3485 128.133 66.1885 128.539 66.0071 128.88H69.5591ZM73.5914 122H74.4714L74.7114 122.96H74.7754C75.0207 122.587 75.3354 122.304 75.7194 122.112C76.114 121.909 76.562 121.808 77.0634 121.808C78.13 121.808 78.9247 122.123 79.4474 122.752C79.97 123.381 80.2314 124.411 80.2314 125.84C80.2314 126.512 80.1407 127.12 79.9594 127.664C79.7887 128.197 79.5434 128.651 79.2234 129.024C78.9034 129.397 78.514 129.685 78.0554 129.888C77.6074 130.091 77.106 130.192 76.5514 130.192C76.1567 130.192 75.842 130.165 75.6074 130.112C75.3834 130.069 75.138 129.989 74.8714 129.872V133.2H73.5914V122ZM76.8234 122.928C76.2794 122.928 75.8474 123.072 75.5274 123.36C75.218 123.637 74.9994 124.064 74.8714 124.64V128.608C75.0634 128.757 75.282 128.875 75.5274 128.96C75.7727 129.035 76.098 129.072 76.5034 129.072C77.2394 129.072 77.8207 128.8 78.2474 128.256C78.6847 127.701 78.9034 126.891 78.9034 125.824C78.9034 125.387 78.866 124.992 78.7914 124.64C78.7167 124.277 78.594 123.973 78.4234 123.728C78.2634 123.472 78.05 123.275 77.7834 123.136C77.5274 122.997 77.2074 122.928 76.8234 122.928ZM81.7996 126C81.7996 124.645 82.0983 123.611 82.6956 122.896C83.3036 122.171 84.173 121.808 85.3036 121.808C85.901 121.808 86.4183 121.909 86.8556 122.112C87.3036 122.304 87.6716 122.587 87.9596 122.96C88.2476 123.323 88.461 123.765 88.5996 124.288C88.7383 124.8 88.8076 125.371 88.8076 126C88.8076 127.355 88.5036 128.395 87.8956 129.12C87.2983 129.835 86.4343 130.192 85.3036 130.192C84.7063 130.192 84.1836 130.096 83.7356 129.904C83.2983 129.701 82.9356 129.419 82.6476 129.056C82.3596 128.683 82.1463 128.24 82.0076 127.728C81.869 127.205 81.7996 126.629 81.7996 126ZM83.1276 126C83.1276 126.405 83.165 126.795 83.2396 127.168C83.325 127.541 83.453 127.867 83.6236 128.144C83.7943 128.421 84.0183 128.645 84.2956 128.816C84.573 128.987 84.909 129.072 85.3036 129.072C86.7543 129.083 87.4796 128.059 87.4796 126C87.4796 125.584 87.437 125.189 87.3516 124.816C87.277 124.443 87.1543 124.117 86.9836 123.84C86.813 123.563 86.589 123.344 86.3116 123.184C86.0343 123.013 85.6983 122.928 85.3036 122.928C83.853 122.917 83.1276 123.941 83.1276 126ZM90.8258 122.016C91.1991 121.995 91.5884 121.968 91.9938 121.936C92.4098 121.904 92.9218 121.888 93.5298 121.888C94.5858 121.888 95.3431 122.053 95.8018 122.384C96.2604 122.704 96.4898 123.195 96.4898 123.856C96.4898 124.229 96.3778 124.597 96.1538 124.96C95.9404 125.312 95.5831 125.573 95.0818 125.744V125.808C95.7111 125.925 96.1538 126.144 96.4098 126.464C96.6658 126.784 96.7938 127.211 96.7938 127.744C96.7938 128.576 96.4951 129.179 95.8978 129.552C95.3004 129.925 94.4044 130.112 93.2098 130.112C92.7618 130.112 92.3458 130.096 91.9618 130.064C91.5778 130.043 91.1991 130.016 90.8258 129.984V122.016ZM92.1058 128.928C92.3084 128.949 92.5058 128.965 92.6978 128.976C92.9004 128.987 93.1351 128.992 93.4018 128.992C94.1164 128.992 94.6444 128.891 94.9858 128.688C95.3378 128.485 95.5138 128.139 95.5138 127.648C95.5138 127.264 95.3644 126.955 95.0658 126.72C94.7778 126.475 94.2604 126.352 93.5138 126.352H92.1058V128.928ZM93.6738 125.376C93.8658 125.376 94.0524 125.344 94.2338 125.28C94.4151 125.216 94.5751 125.131 94.7138 125.024C94.8631 124.907 94.9804 124.773 95.0658 124.624C95.1618 124.475 95.2098 124.315 95.2098 124.144C95.2098 123.717 95.0818 123.424 94.8258 123.264C94.5698 123.093 94.1218 123.008 93.4818 123.008C93.1404 123.008 92.8684 123.013 92.6658 123.024C92.4738 123.035 92.2871 123.045 92.1058 123.056V125.376H93.6738ZM100.09 128.88C100.485 128.944 100.863 128.976 101.226 128.976C101.898 128.976 102.367 128.848 102.634 128.592C102.901 128.325 103.034 127.952 103.034 127.472C103.034 127.045 102.901 126.693 102.634 126.416C102.378 126.139 101.925 126 101.274 126C101.093 126 100.895 126.005 100.682 126.016C100.469 126.027 100.271 126.059 100.09 126.112V128.88ZM100.09 125.056C100.346 125.013 100.591 124.987 100.826 124.976C101.061 124.955 101.285 124.944 101.498 124.944C102.042 124.944 102.495 125.008 102.858 125.136C103.231 125.253 103.53 125.419 103.754 125.632C103.978 125.845 104.133 126.101 104.218 126.4C104.314 126.688 104.362 126.997 104.362 127.328C104.362 128.299 104.09 129.003 103.546 129.44C103.013 129.877 102.143 130.096 100.938 130.096C100.255 130.096 99.5461 130.064 98.8101 130V122H100.09V125.056ZM105.626 122H106.906V130H105.626V122ZM114.365 125.264L114.413 124.272H114.365L113.709 125.296L110.109 130H109.373V122H110.653V126.88L110.605 127.824H110.669L111.293 126.832L114.893 122H115.645V130H114.365V125.264ZM111.213 118.768C111.319 119.259 111.501 119.6 111.757 119.792C112.023 119.984 112.327 120.08 112.669 120.08C113.01 120.08 113.314 119.979 113.581 119.776C113.847 119.573 114.029 119.243 114.125 118.784L115.085 119.088C114.989 119.707 114.711 120.181 114.253 120.512C113.805 120.843 113.266 121.008 112.637 121.008C112.349 121.008 112.061 120.971 111.773 120.896C111.495 120.821 111.245 120.709 111.021 120.56C110.797 120.411 110.605 120.219 110.445 119.984C110.285 119.749 110.178 119.472 110.125 119.152L111.213 118.768ZM122.373 122H123.253L123.493 122.96H123.557C123.802 122.587 124.117 122.304 124.501 122.112C124.895 121.909 125.343 121.808 125.845 121.808C126.911 121.808 127.706 122.123 128.229 122.752C128.751 123.381 129.013 124.411 129.013 125.84C129.013 126.512 128.922 127.12 128.741 127.664C128.57 128.197 128.325 128.651 128.005 129.024C127.685 129.397 127.295 129.685 126.837 129.888C126.389 130.091 125.887 130.192 125.333 130.192C124.938 130.192 124.623 130.165 124.389 130.112C124.165 130.069 123.919 129.989 123.653 129.872V133.2H122.373V122ZM125.605 122.928C125.061 122.928 124.629 123.072 124.309 123.36C123.999 123.637 123.781 124.064 123.653 124.64V128.608C123.845 128.757 124.063 128.875 124.309 128.96C124.554 129.035 124.879 129.072 125.285 129.072C126.021 129.072 126.602 128.8 127.029 128.256C127.466 127.701 127.685 126.891 127.685 125.824C127.685 125.387 127.647 124.992 127.573 124.64C127.498 124.277 127.375 123.973 127.205 123.728C127.045 123.472 126.831 123.275 126.565 123.136C126.309 122.997 125.989 122.928 125.605 122.928ZM136.869 129.36C136.549 129.616 136.144 129.819 135.653 129.968C135.173 130.117 134.661 130.192 134.117 130.192C133.509 130.192 132.981 130.096 132.533 129.904C132.085 129.701 131.717 129.419 131.429 129.056C131.141 128.683 130.928 128.24 130.789 127.728C130.65 127.216 130.581 126.64 130.581 126C130.581 124.635 130.885 123.595 131.493 122.88C132.101 122.165 132.97 121.808 134.101 121.808C134.464 121.808 134.826 121.851 135.189 121.936C135.552 122.011 135.877 122.16 136.165 122.384C136.453 122.608 136.688 122.928 136.869 123.344C137.05 123.749 137.141 124.288 137.141 124.96C137.141 125.312 137.109 125.701 137.045 126.128H131.909C131.909 126.597 131.957 127.013 132.053 127.376C132.149 127.739 132.298 128.048 132.501 128.304C132.704 128.549 132.965 128.741 133.285 128.88C133.616 129.008 134.016 129.072 134.485 129.072C134.848 129.072 135.21 129.008 135.573 128.88C135.936 128.752 136.208 128.603 136.389 128.432L136.869 129.36ZM134.117 122.928C133.488 122.928 132.981 123.093 132.597 123.424C132.224 123.755 132 124.32 131.925 125.12H135.893C135.893 124.309 135.738 123.744 135.429 123.424C135.12 123.093 134.682 122.928 134.117 122.928ZM139.922 126.432V125.392H141.042C141.234 125.392 141.421 125.36 141.602 125.296C141.794 125.232 141.965 125.147 142.114 125.04C142.263 124.923 142.381 124.789 142.466 124.64C142.562 124.48 142.61 124.315 142.61 124.144C142.61 123.728 142.466 123.435 142.178 123.264C141.89 123.093 141.458 123.008 140.882 123.008C140.466 123.008 140.082 123.072 139.73 123.2C139.389 123.328 139.122 123.451 138.93 123.568L138.562 122.576C138.882 122.395 139.255 122.235 139.682 122.096C140.119 121.957 140.637 121.888 141.234 121.888C143.005 121.888 143.89 122.544 143.89 123.856C143.89 124.229 143.767 124.597 143.522 124.96C143.287 125.312 142.946 125.563 142.498 125.712V125.776C143.127 125.893 143.565 126.117 143.81 126.448C144.066 126.779 144.194 127.216 144.194 127.76C144.194 128.101 144.125 128.416 143.986 128.704C143.847 128.992 143.639 129.243 143.362 129.456C143.085 129.669 142.733 129.84 142.306 129.968C141.89 130.085 141.405 130.144 140.85 130.144C140.306 130.144 139.853 130.096 139.49 130C139.138 129.904 138.818 129.787 138.53 129.648L138.898 128.592C139.143 128.731 139.437 128.837 139.778 128.912C140.13 128.987 140.509 129.024 140.914 129.024C141.565 129.024 142.061 128.912 142.402 128.688C142.743 128.464 142.914 128.123 142.914 127.664C142.914 127.28 142.754 126.981 142.434 126.768C142.114 126.544 141.586 126.432 140.85 126.432H139.922ZM152.056 129.36C151.736 129.616 151.331 129.819 150.84 129.968C150.36 130.117 149.848 130.192 149.304 130.192C148.696 130.192 148.168 130.096 147.72 129.904C147.272 129.701 146.904 129.419 146.616 129.056C146.328 128.683 146.115 128.24 145.976 127.728C145.838 127.216 145.768 126.64 145.768 126C145.768 124.635 146.072 123.595 146.68 122.88C147.288 122.165 148.158 121.808 149.288 121.808C149.651 121.808 150.014 121.851 150.376 121.936C150.739 122.011 151.064 122.16 151.352 122.384C151.64 122.608 151.875 122.928 152.056 123.344C152.238 123.749 152.328 124.288 152.328 124.96C152.328 125.312 152.296 125.701 152.232 126.128H147.096C147.096 126.597 147.144 127.013 147.24 127.376C147.336 127.739 147.486 128.048 147.688 128.304C147.891 128.549 148.152 128.741 148.472 128.88C148.803 129.008 149.203 129.072 149.672 129.072C150.035 129.072 150.398 129.008 150.76 128.88C151.123 128.752 151.395 128.603 151.576 128.432L152.056 129.36ZM149.304 122.928C148.675 122.928 148.168 123.093 147.784 123.424C147.411 123.755 147.187 124.32 147.112 125.12H151.08C151.08 124.309 150.926 123.744 150.616 123.424C150.307 123.093 149.87 122.928 149.304 122.928ZM154.341 122H155.221L155.461 122.96H155.525C155.771 122.587 156.085 122.304 156.469 122.112C156.864 121.909 157.312 121.808 157.813 121.808C158.88 121.808 159.675 122.123 160.197 122.752C160.72 123.381 160.981 124.411 160.981 125.84C160.981 126.512 160.891 127.12 160.709 127.664C160.539 128.197 160.293 128.651 159.973 129.024C159.653 129.397 159.264 129.685 158.805 129.888C158.357 130.091 157.856 130.192 157.301 130.192C156.907 130.192 156.592 130.165 156.357 130.112C156.133 130.069 155.888 129.989 155.621 129.872V133.2H154.341V122ZM157.573 122.928C157.029 122.928 156.597 123.072 156.277 123.36C155.968 123.637 155.749 124.064 155.621 124.64V128.608C155.813 128.757 156.032 128.875 156.277 128.96C156.523 129.035 156.848 129.072 157.253 129.072C157.989 129.072 158.571 128.8 158.997 128.256C159.435 127.701 159.653 126.891 159.653 125.824C159.653 125.387 159.616 124.992 159.541 124.64C159.467 124.277 159.344 123.973 159.173 123.728C159.013 123.472 158.8 123.275 158.533 123.136C158.277 122.997 157.957 122.928 157.573 122.928ZM162.998 122.016C163.371 121.995 163.76 121.968 164.166 121.936C164.582 121.904 165.094 121.888 165.702 121.888C166.758 121.888 167.515 122.053 167.974 122.384C168.432 122.704 168.662 123.195 168.662 123.856C168.662 124.229 168.55 124.597 168.326 124.96C168.112 125.312 167.755 125.573 167.254 125.744V125.808C167.883 125.925 168.326 126.144 168.582 126.464C168.838 126.784 168.966 127.211 168.966 127.744C168.966 128.576 168.667 129.179 168.07 129.552C167.472 129.925 166.576 130.112 165.382 130.112C164.934 130.112 164.518 130.096 164.134 130.064C163.75 130.043 163.371 130.016 162.998 129.984V122.016ZM164.278 128.928C164.48 128.949 164.678 128.965 164.87 128.976C165.072 128.987 165.307 128.992 165.574 128.992C166.288 128.992 166.816 128.891 167.158 128.688C167.51 128.485 167.686 128.139 167.686 127.648C167.686 127.264 167.536 126.955 167.238 126.72C166.95 126.475 166.432 126.352 165.686 126.352H164.278V128.928ZM165.846 125.376C166.038 125.376 166.224 125.344 166.406 125.28C166.587 125.216 166.747 125.131 166.886 125.024C167.035 124.907 167.152 124.773 167.238 124.624C167.334 124.475 167.382 124.315 167.382 124.144C167.382 123.717 167.254 123.424 166.998 123.264C166.742 123.093 166.294 123.008 165.654 123.008C165.312 123.008 165.04 123.013 164.838 123.024C164.646 123.035 164.459 123.045 164.278 123.056V125.376H165.846ZM52.224 149.264L52.272 148.272H52.224L51.568 149.296L47.968 154H47.232V146H48.512V150.88L48.464 151.824H48.528L49.152 150.832L52.752 146H53.504V154H52.224V149.264ZM62.584 151.184L63.032 152.72H63.112L63.464 151.168L65.016 146H66.312L63.944 153.184C63.7627 153.707 63.5813 154.213 63.4 154.704C63.2293 155.195 63.0373 155.632 62.824 156.016C62.6107 156.4 62.3707 156.704 62.104 156.928C61.8373 157.163 61.528 157.28 61.176 157.28C60.792 157.28 60.4773 157.227 60.232 157.12L60.456 156.016C60.5947 156.069 60.728 156.096 60.856 156.096C61.1547 156.096 61.4427 155.936 61.72 155.616C61.9973 155.307 62.2267 154.768 62.408 154L59.192 146H60.664L62.584 151.184ZM72.5011 147.12H68.9651V154H67.6851V146H73.7811V154H72.5011V147.12ZM76.2476 146H77.1276L77.3676 146.96H77.4316C77.677 146.587 77.9916 146.304 78.3756 146.112C78.7703 145.909 79.2183 145.808 79.7196 145.808C80.7863 145.808 81.581 146.123 82.1036 146.752C82.6263 147.381 82.8876 148.411 82.8876 149.84C82.8876 150.512 82.797 151.12 82.6156 151.664C82.445 152.197 82.1996 152.651 81.8796 153.024C81.5596 153.397 81.1703 153.685 80.7116 153.888C80.2636 154.091 79.7623 154.192 79.2076 154.192C78.813 154.192 78.4983 154.165 78.2636 154.112C78.0396 154.069 77.7943 153.989 77.5276 153.872V157.2H76.2476V146ZM79.4796 146.928C78.9356 146.928 78.5036 147.072 78.1836 147.36C77.8743 147.637 77.6556 148.064 77.5276 148.64V152.608C77.7196 152.757 77.9383 152.875 78.1836 152.96C78.429 153.035 78.7543 153.072 79.1596 153.072C79.8956 153.072 80.477 152.8 80.9036 152.256C81.341 151.701 81.5596 150.891 81.5596 149.824C81.5596 149.387 81.5223 148.992 81.4476 148.64C81.373 148.277 81.2503 147.973 81.0796 147.728C80.9196 147.472 80.7063 147.275 80.4396 147.136C80.1836 146.997 79.8636 146.928 79.4796 146.928ZM84.7759 146.592C85.1812 146.347 85.6505 146.165 86.1839 146.048C86.7279 145.931 87.2932 145.872 87.8799 145.872C88.4345 145.872 88.8772 145.947 89.2079 146.096C89.5492 146.245 89.8052 146.443 89.9759 146.688C90.1572 146.923 90.2745 147.184 90.3279 147.472C90.3919 147.76 90.4239 148.048 90.4239 148.336C90.4239 148.976 90.4079 149.6 90.3759 150.208C90.3439 150.816 90.3279 151.392 90.3279 151.936C90.3279 152.331 90.3439 152.704 90.3759 153.056C90.4079 153.408 90.4665 153.733 90.5519 154.032H89.6079L89.2719 152.912H89.1919C89.0959 153.061 88.9732 153.211 88.8239 153.36C88.6852 153.499 88.5145 153.627 88.3119 153.744C88.1092 153.851 87.8745 153.941 87.6079 154.016C87.3412 154.091 87.0372 154.128 86.6959 154.128C86.3545 154.128 86.0345 154.075 85.7359 153.968C85.4479 153.861 85.1972 153.712 84.9839 153.52C84.7705 153.317 84.5999 153.077 84.4719 152.8C84.3545 152.523 84.2959 152.208 84.2959 151.856C84.2959 151.387 84.3919 150.997 84.5839 150.688C84.7759 150.368 85.0425 150.117 85.3839 149.936C85.7359 149.744 86.1519 149.611 86.6319 149.536C87.1225 149.451 87.6612 149.408 88.2479 149.408C88.3972 149.408 88.5412 149.408 88.6799 149.408C88.8292 149.408 88.9785 149.419 89.1279 149.44C89.1599 149.12 89.1759 148.832 89.1759 148.576C89.1759 147.989 89.0585 147.579 88.8239 147.344C88.5892 147.109 88.1625 146.992 87.5439 146.992C87.3625 146.992 87.1652 147.008 86.9519 147.04C86.7492 147.061 86.5359 147.099 86.3119 147.152C86.0985 147.195 85.8905 147.253 85.6879 147.328C85.4959 147.392 85.3252 147.467 85.1759 147.552L84.7759 146.592ZM87.0479 153.008C87.3465 153.008 87.6132 152.971 87.8479 152.896C88.0825 152.811 88.2852 152.709 88.4559 152.592C88.6265 152.464 88.7652 152.325 88.8719 152.176C88.9892 152.027 89.0745 151.883 89.1279 151.744V150.416C88.9785 150.405 88.8239 150.4 88.6639 150.4C88.5145 150.389 88.3652 150.384 88.2159 150.384C87.8852 150.384 87.5599 150.405 87.2399 150.448C86.9305 150.48 86.6532 150.549 86.4079 150.656C86.1732 150.752 85.9812 150.891 85.8319 151.072C85.6932 151.243 85.6239 151.461 85.6239 151.728C85.6239 152.101 85.7572 152.411 86.0239 152.656C86.2905 152.891 86.6319 153.008 87.0479 153.008ZM92.8414 146.016C93.2147 145.995 93.604 145.968 94.0094 145.936C94.4254 145.904 94.9374 145.888 95.5454 145.888C96.6014 145.888 97.3587 146.053 97.8174 146.384C98.276 146.704 98.5054 147.195 98.5054 147.856C98.5054 148.229 98.3934 148.597 98.1694 148.96C97.956 149.312 97.5987 149.573 97.0974 149.744V149.808C97.7267 149.925 98.1694 150.144 98.4254 150.464C98.6814 150.784 98.8094 151.211 98.8094 151.744C98.8094 152.576 98.5107 153.179 97.9134 153.552C97.316 153.925 96.42 154.112 95.2254 154.112C94.7774 154.112 94.3614 154.096 93.9774 154.064C93.5934 154.043 93.2147 154.016 92.8414 153.984V146.016ZM94.1214 152.928C94.324 152.949 94.5214 152.965 94.7134 152.976C94.916 152.987 95.1507 152.992 95.4174 152.992C96.132 152.992 96.66 152.891 97.0014 152.688C97.3534 152.485 97.5294 152.139 97.5294 151.648C97.5294 151.264 97.38 150.955 97.0814 150.72C96.7934 150.475 96.276 150.352 95.5294 150.352H94.1214V152.928ZM95.6894 149.376C95.8814 149.376 96.068 149.344 96.2494 149.28C96.4307 149.216 96.5907 149.131 96.7294 149.024C96.8787 148.907 96.996 148.773 97.0814 148.624C97.1774 148.475 97.2254 148.315 97.2254 148.144C97.2254 147.717 97.0974 147.424 96.8414 147.264C96.5854 147.093 96.1374 147.008 95.4974 147.008C95.156 147.008 94.884 147.013 94.6814 147.024C94.4894 147.035 94.3027 147.045 94.1214 147.056V149.376H95.6894ZM105.13 147.12H102.81C102.778 147.568 102.746 148.053 102.714 148.576C102.682 149.088 102.634 149.605 102.57 150.128C102.506 150.64 102.42 151.136 102.314 151.616C102.207 152.085 102.068 152.501 101.898 152.864C101.738 153.227 101.535 153.52 101.29 153.744C101.055 153.957 100.772 154.064 100.442 154.064C100.239 154.064 100.063 154.053 99.9138 154.032C99.7644 154.011 99.6311 153.973 99.5137 153.92L99.7058 152.848C99.8338 152.891 99.9724 152.912 100.122 152.912C100.335 152.912 100.527 152.821 100.698 152.64C100.868 152.459 101.018 152.117 101.146 151.616C101.274 151.104 101.38 150.4 101.466 149.504C101.551 148.608 101.61 147.44 101.642 146H106.41V154H105.13V147.12ZM114.713 153.36C114.393 153.616 113.987 153.819 113.497 153.968C113.017 154.117 112.505 154.192 111.961 154.192C111.353 154.192 110.825 154.096 110.377 153.904C109.929 153.701 109.561 153.419 109.273 153.056C108.985 152.683 108.771 152.24 108.633 151.728C108.494 151.216 108.425 150.64 108.425 150C108.425 148.635 108.729 147.595 109.337 146.88C109.945 146.165 110.814 145.808 111.945 145.808C112.307 145.808 112.67 145.851 113.033 145.936C113.395 146.011 113.721 146.16 114.009 146.384C114.297 146.608 114.531 146.928 114.713 147.344C114.894 147.749 114.985 148.288 114.985 148.96C114.985 149.312 114.953 149.701 114.889 150.128H109.753C109.753 150.597 109.801 151.013 109.897 151.376C109.993 151.739 110.142 152.048 110.345 152.304C110.547 152.549 110.809 152.741 111.129 152.88C111.459 153.008 111.859 153.072 112.329 153.072C112.691 153.072 113.054 153.008 113.417 152.88C113.779 152.752 114.051 152.603 114.233 152.432L114.713 153.36ZM111.961 146.928C111.331 146.928 110.825 147.093 110.441 147.424C110.067 147.755 109.843 148.32 109.769 149.12H113.737C113.737 148.309 113.582 147.744 113.273 147.424C112.963 147.093 112.526 146.928 111.961 146.928ZM121.894 150.464H118.278V154H116.998V146H118.278V149.344H121.894V146H123.174V154H121.894V150.464ZM130.63 149.264L130.678 148.272H130.63L129.974 149.296L126.374 154H125.638V146H126.918V150.88L126.87 151.824H126.934L127.558 150.832L131.158 146H131.91V154H130.63V149.264ZM140.213 153.36C139.893 153.616 139.487 153.819 138.997 153.968C138.517 154.117 138.005 154.192 137.461 154.192C136.853 154.192 136.325 154.096 135.877 153.904C135.429 153.701 135.061 153.419 134.773 153.056C134.485 152.683 134.271 152.24 134.133 151.728C133.994 151.216 133.925 150.64 133.925 150C133.925 148.635 134.229 147.595 134.837 146.88C135.445 146.165 136.314 145.808 137.445 145.808C137.807 145.808 138.17 145.851 138.533 145.936C138.895 146.011 139.221 146.16 139.509 146.384C139.797 146.608 140.031 146.928 140.213 147.344C140.394 147.749 140.485 148.288 140.485 148.96C140.485 149.312 140.453 149.701 140.389 150.128H135.253C135.253 150.597 135.301 151.013 135.397 151.376C135.493 151.739 135.642 152.048 135.845 152.304C136.047 152.549 136.309 152.741 136.629 152.88C136.959 153.008 137.359 153.072 137.829 153.072C138.191 153.072 138.554 153.008 138.917 152.88C139.279 152.752 139.551 152.603 139.733 152.432L140.213 153.36ZM137.461 146.928C136.831 146.928 136.325 147.093 135.941 147.424C135.567 147.755 135.343 148.32 135.269 149.12H139.237C139.237 148.309 139.082 147.744 138.773 147.424C138.463 147.093 138.026 146.928 137.461 146.928ZM151.476 147.12H148.98V154H147.7V147.12H145.204V146H151.476V147.12ZM152.62 146.592C153.025 146.347 153.494 146.165 154.028 146.048C154.572 145.931 155.137 145.872 155.724 145.872C156.278 145.872 156.721 145.947 157.052 146.096C157.393 146.245 157.649 146.443 157.82 146.688C158.001 146.923 158.118 147.184 158.172 147.472C158.236 147.76 158.268 148.048 158.268 148.336C158.268 148.976 158.252 149.6 158.22 150.208C158.188 150.816 158.172 151.392 158.172 151.936C158.172 152.331 158.188 152.704 158.22 153.056C158.252 153.408 158.31 153.733 158.396 154.032H157.452L157.116 152.912H157.036C156.94 153.061 156.817 153.211 156.668 153.36C156.529 153.499 156.358 153.627 156.156 153.744C155.953 153.851 155.718 153.941 155.452 154.016C155.185 154.091 154.881 154.128 154.54 154.128C154.198 154.128 153.878 154.075 153.58 153.968C153.292 153.861 153.041 153.712 152.828 153.52C152.614 153.317 152.444 153.077 152.316 152.8C152.198 152.523 152.14 152.208 152.14 151.856C152.14 151.387 152.236 150.997 152.428 150.688C152.62 150.368 152.886 150.117 153.228 149.936C153.58 149.744 153.996 149.611 154.476 149.536C154.966 149.451 155.505 149.408 156.092 149.408C156.241 149.408 156.385 149.408 156.524 149.408C156.673 149.408 156.822 149.419 156.972 149.44C157.004 149.12 157.02 148.832 157.02 148.576C157.02 147.989 156.902 147.579 156.668 147.344C156.433 147.109 156.006 146.992 155.388 146.992C155.206 146.992 155.009 147.008 154.796 147.04C154.593 147.061 154.38 147.099 154.156 147.152C153.942 147.195 153.734 147.253 153.532 147.328C153.34 147.392 153.169 147.467 153.02 147.552L152.62 146.592ZM154.892 153.008C155.19 153.008 155.457 152.971 155.692 152.896C155.926 152.811 156.129 152.709 156.3 152.592C156.47 152.464 156.609 152.325 156.716 152.176C156.833 152.027 156.918 151.883 156.972 151.744V150.416C156.822 150.405 156.668 150.4 156.508 150.4C156.358 150.389 156.209 150.384 156.06 150.384C155.729 150.384 155.404 150.405 155.084 150.448C154.774 150.48 154.497 150.549 154.252 150.656C154.017 150.752 153.825 150.891 153.676 151.072C153.537 151.243 153.468 151.461 153.468 151.728C153.468 152.101 153.601 152.411 153.868 152.656C154.134 152.891 154.476 153.008 154.892 153.008ZM164.989 147.12H162.669C162.637 147.568 162.605 148.053 162.573 148.576C162.541 149.088 162.493 149.605 162.429 150.128C162.365 150.64 162.28 151.136 162.173 151.616C162.066 152.085 161.928 152.501 161.757 152.864C161.597 153.227 161.394 153.52 161.149 153.744C160.914 153.957 160.632 154.064 160.301 154.064C160.098 154.064 159.922 154.053 159.773 154.032C159.624 154.011 159.49 153.973 159.373 153.92L159.565 152.848C159.693 152.891 159.832 152.912 159.981 152.912C160.194 152.912 160.386 152.821 160.557 152.64C160.728 152.459 160.877 152.117 161.005 151.616C161.133 151.104 161.24 150.4 161.325 149.504C161.41 148.608 161.469 147.44 161.501 146H166.269V154H164.989V147.12ZM168.604 146.592C169.009 146.347 169.479 146.165 170.012 146.048C170.556 145.931 171.121 145.872 171.708 145.872C172.263 145.872 172.705 145.947 173.036 146.096C173.377 146.245 173.633 146.443 173.804 146.688C173.985 146.923 174.103 147.184 174.156 147.472C174.22 147.76 174.252 148.048 174.252 148.336C174.252 148.976 174.236 149.6 174.204 150.208C174.172 150.816 174.156 151.392 174.156 151.936C174.156 152.331 174.172 152.704 174.204 153.056C174.236 153.408 174.295 153.733 174.38 154.032H173.436L173.1 152.912H173.02C172.924 153.061 172.801 153.211 172.652 153.36C172.513 153.499 172.343 153.627 172.14 153.744C171.937 153.851 171.703 153.941 171.436 154.016C171.169 154.091 170.865 154.128 170.524 154.128C170.183 154.128 169.863 154.075 169.564 153.968C169.276 153.861 169.025 153.712 168.812 153.52C168.599 153.317 168.428 153.077 168.3 152.8C168.183 152.523 168.124 152.208 168.124 151.856C168.124 151.387 168.22 150.997 168.412 150.688C168.604 150.368 168.871 150.117 169.212 149.936C169.564 149.744 169.98 149.611 170.46 149.536C170.951 149.451 171.489 149.408 172.076 149.408C172.225 149.408 172.369 149.408 172.508 149.408C172.657 149.408 172.807 149.419 172.956 149.44C172.988 149.12 173.004 148.832 173.004 148.576C173.004 147.989 172.887 147.579 172.652 147.344C172.417 147.109 171.991 146.992 171.372 146.992C171.191 146.992 170.993 147.008 170.78 147.04C170.577 147.061 170.364 147.099 170.14 147.152C169.927 147.195 169.719 147.253 169.516 147.328C169.324 147.392 169.153 147.467 169.004 147.552L168.604 146.592ZM170.876 153.008C171.175 153.008 171.441 152.971 171.676 152.896C171.911 152.811 172.113 152.709 172.284 152.592C172.455 152.464 172.593 152.325 172.7 152.176C172.817 152.027 172.903 151.883 172.956 151.744V150.416C172.807 150.405 172.652 150.4 172.492 150.4C172.343 150.389 172.193 150.384 172.044 150.384C171.713 150.384 171.388 150.405 171.068 150.448C170.759 150.48 170.481 150.549 170.236 150.656C170.001 150.752 169.809 150.891 169.66 151.072C169.521 151.243 169.452 151.461 169.452 151.728C169.452 152.101 169.585 152.411 169.852 152.656C170.119 152.891 170.46 153.008 170.876 153.008ZM181.566 150.464H177.95V154H176.67V146H177.95V149.344H181.566V146H182.846V154H181.566V150.464ZM190.398 147.12H187.902V154H186.622V147.12H184.126V146H190.398V147.12ZM191.542 146.592C191.947 146.347 192.416 146.165 192.95 146.048C193.494 145.931 194.059 145.872 194.646 145.872C195.2 145.872 195.643 145.947 195.974 146.096C196.315 146.245 196.571 146.443 196.742 146.688C196.923 146.923 197.04 147.184 197.094 147.472C197.158 147.76 197.19 148.048 197.19 148.336C197.19 148.976 197.174 149.6 197.142 150.208C197.11 150.816 197.094 151.392 197.094 151.936C197.094 152.331 197.11 152.704 197.142 153.056C197.174 153.408 197.232 153.733 197.318 154.032H196.374L196.038 152.912H195.958C195.862 153.061 195.739 153.211 195.59 153.36C195.451 153.499 195.28 153.627 195.078 153.744C194.875 153.851 194.64 153.941 194.374 154.016C194.107 154.091 193.803 154.128 193.462 154.128C193.12 154.128 192.8 154.075 192.502 153.968C192.214 153.861 191.963 153.712 191.75 153.52C191.536 153.317 191.366 153.077 191.238 152.8C191.12 152.523 191.062 152.208 191.062 151.856C191.062 151.387 191.158 150.997 191.35 150.688C191.542 150.368 191.808 150.117 192.15 149.936C192.502 149.744 192.918 149.611 193.398 149.536C193.888 149.451 194.427 149.408 195.014 149.408C195.163 149.408 195.307 149.408 195.446 149.408C195.595 149.408 195.744 149.419 195.894 149.44C195.926 149.12 195.942 148.832 195.942 148.576C195.942 147.989 195.824 147.579 195.59 147.344C195.355 147.109 194.928 146.992 194.31 146.992C194.128 146.992 193.931 147.008 193.718 147.04C193.515 147.061 193.302 147.099 193.078 147.152C192.864 147.195 192.656 147.253 192.454 147.328C192.262 147.392 192.091 147.467 191.942 147.552L191.542 146.592ZM193.814 153.008C194.112 153.008 194.379 152.971 194.614 152.896C194.848 152.811 195.051 152.709 195.222 152.592C195.392 152.464 195.531 152.325 195.638 152.176C195.755 152.027 195.84 151.883 195.894 151.744V150.416C195.744 150.405 195.59 150.4 195.43 150.4C195.28 150.389 195.131 150.384 194.982 150.384C194.651 150.384 194.326 150.405 194.006 150.448C193.696 150.48 193.419 150.549 193.174 150.656C192.939 150.752 192.747 150.891 192.598 151.072C192.459 151.243 192.39 151.461 192.39 151.728C192.39 152.101 192.523 152.411 192.789 152.656C193.056 152.891 193.398 153.008 193.814 153.008ZM206.215 149.248L206.311 147.728H206.231L205.655 148.96L203.719 152.096H203.271L201.255 148.96L200.727 147.728H200.663L200.791 149.232V154H199.607V146H200.871L203.111 149.584L203.575 150.512H203.607L204.087 149.552L206.183 146H207.463V154H206.215V149.248ZM214.912 149.264L214.96 148.272H214.912L214.256 149.296L210.656 154H209.92V146H211.2V150.88L211.152 151.824H211.216L211.84 150.832L215.44 146H216.192V154H214.912V149.264Z" fill="#333333"/>
<path d="M140.993 223.88H136.705V233H134.337V221.8H143.361V233H140.993V223.88ZM145.446 221.912C145.926 221.827 146.46 221.763 147.046 221.72C147.633 221.667 148.22 221.64 148.806 221.64C149.404 221.64 150.006 221.688 150.614 221.784C151.222 221.869 151.766 222.051 152.246 222.328C152.737 222.595 153.137 222.973 153.446 223.464C153.756 223.944 153.91 224.584 153.91 225.384C153.91 226.088 153.777 226.691 153.51 227.192C153.244 227.683 152.886 228.083 152.438 228.392C152.001 228.701 151.5 228.931 150.934 229.08C150.369 229.219 149.788 229.288 149.19 229.288C149.137 229.288 149.046 229.288 148.918 229.288C148.79 229.288 148.652 229.288 148.502 229.288C148.364 229.277 148.23 229.267 148.102 229.256C147.974 229.245 147.878 229.235 147.814 229.224V233H145.446V221.912ZM148.966 223.72C148.742 223.72 148.524 223.725 148.31 223.736C148.108 223.747 147.942 223.768 147.814 223.8V227.128C147.857 227.139 147.926 227.149 148.022 227.16C148.118 227.171 148.22 227.181 148.326 227.192C148.433 227.192 148.529 227.197 148.614 227.208C148.71 227.208 148.785 227.208 148.838 227.208C149.148 227.208 149.457 227.187 149.766 227.144C150.076 227.101 150.348 227.011 150.582 226.872C150.828 226.733 151.025 226.547 151.174 226.312C151.324 226.067 151.398 225.741 151.398 225.336C151.398 224.995 151.329 224.723 151.19 224.52C151.052 224.307 150.865 224.141 150.63 224.024C150.406 223.907 150.145 223.827 149.846 223.784C149.558 223.741 149.265 223.72 148.966 223.72ZM154.781 227.4C154.781 226.483 154.898 225.661 155.133 224.936C155.367 224.211 155.703 223.603 156.141 223.112C156.589 222.611 157.133 222.232 157.773 221.976C158.413 221.709 159.138 221.576 159.949 221.576C160.813 221.576 161.565 221.72 162.205 222.008C162.855 222.285 163.394 222.68 163.821 223.192C164.258 223.704 164.583 224.317 164.797 225.032C165.021 225.747 165.133 226.536 165.133 227.4C165.133 228.317 165.01 229.139 164.765 229.864C164.53 230.589 164.189 231.203 163.741 231.704C163.293 232.195 162.749 232.573 162.109 232.84C161.469 233.096 160.749 233.224 159.949 233.224C159.085 233.224 158.327 233.085 157.677 232.808C157.037 232.52 156.498 232.12 156.061 231.608C155.634 231.096 155.314 230.483 155.101 229.768C154.887 229.053 154.781 228.264 154.781 227.4ZM157.293 227.4C157.293 227.955 157.346 228.461 157.453 228.92C157.559 229.379 157.719 229.773 157.933 230.104C158.146 230.435 158.418 230.691 158.749 230.872C159.09 231.053 159.49 231.144 159.949 231.144C160.791 231.144 161.447 230.856 161.917 230.28C162.386 229.704 162.621 228.744 162.621 227.4C162.621 226.867 162.573 226.371 162.477 225.912C162.381 225.453 162.221 225.059 161.997 224.728C161.783 224.387 161.506 224.125 161.165 223.944C160.834 223.752 160.429 223.656 159.949 223.656C159.117 223.656 158.466 223.955 157.997 224.552C157.527 225.149 157.293 226.099 157.293 227.4ZM171.558 231.784C171.334 231.816 171.11 231.837 170.886 231.848C170.662 231.859 170.416 231.864 170.15 231.864C169.606 231.864 169.094 231.773 168.614 231.592C168.134 231.411 167.712 231.133 167.35 230.76C166.998 230.387 166.715 229.923 166.502 229.368C166.299 228.813 166.198 228.157 166.198 227.4C166.198 226.685 166.299 226.04 166.502 225.464C166.715 224.888 167.008 224.403 167.382 224.008C167.755 223.603 168.203 223.293 168.726 223.08C169.259 222.867 169.84 222.76 170.47 222.76C170.619 222.76 170.8 222.765 171.014 222.776C171.238 222.787 171.419 222.808 171.558 222.84V221.48H173.91V222.888C174.123 222.835 174.368 222.803 174.646 222.792C174.923 222.771 175.152 222.76 175.334 222.76C175.888 222.76 176.406 222.856 176.886 223.048C177.366 223.24 177.782 223.528 178.134 223.912C178.486 224.285 178.763 224.749 178.966 225.304C179.168 225.859 179.27 226.504 179.27 227.24C179.27 227.987 179.158 228.648 178.934 229.224C178.71 229.8 178.406 230.285 178.022 230.68C177.638 231.064 177.19 231.357 176.678 231.56C176.176 231.763 175.643 231.864 175.078 231.864C174.886 231.864 174.678 231.859 174.454 231.848C174.24 231.827 174.059 231.795 173.91 231.752V233.32H171.558V231.784ZM174.774 224.632C174.656 224.632 174.496 224.637 174.294 224.648C174.102 224.659 173.942 224.68 173.814 224.712V229.96C173.91 229.981 174.027 229.992 174.166 229.992C174.304 229.992 174.448 229.992 174.598 229.992C174.907 229.992 175.2 229.939 175.478 229.832C175.755 229.725 175.995 229.565 176.198 229.352C176.411 229.128 176.576 228.845 176.694 228.504C176.811 228.152 176.87 227.736 176.87 227.256C176.87 226.424 176.678 225.779 176.294 225.32C175.92 224.861 175.414 224.632 174.774 224.632ZM170.758 229.992C170.854 229.992 170.992 229.992 171.174 229.992C171.355 229.981 171.515 229.955 171.654 229.912V224.68C171.408 224.648 171.136 224.632 170.838 224.632C170.528 224.632 170.235 224.685 169.958 224.792C169.691 224.899 169.456 225.064 169.254 225.288C169.051 225.512 168.891 225.8 168.774 226.152C168.656 226.493 168.598 226.904 168.598 227.384C168.598 228.227 168.795 228.872 169.19 229.32C169.595 229.768 170.118 229.992 170.758 229.992Z" fill="#333333"/>
<path d="M139.079 329.264H138.455V334H136.087V322.8H138.455V327.728L139.015 327.488L142.375 322.8H145.079L141.527 327.488L140.599 328.096L141.559 328.736L145.623 334H142.695L139.079 329.264ZM145.937 328.4C145.937 327.483 146.054 326.661 146.289 325.936C146.524 325.211 146.86 324.603 147.297 324.112C147.745 323.611 148.289 323.232 148.929 322.976C149.569 322.709 150.294 322.576 151.105 322.576C151.969 322.576 152.721 322.72 153.361 323.008C154.012 323.285 154.55 323.68 154.977 324.192C155.414 324.704 155.74 325.317 155.953 326.032C156.177 326.747 156.289 327.536 156.289 328.4C156.289 329.317 156.166 330.139 155.921 330.864C155.686 331.589 155.345 332.203 154.897 332.704C154.449 333.195 153.905 333.573 153.265 333.84C152.625 334.096 151.905 334.224 151.105 334.224C150.241 334.224 149.484 334.085 148.833 333.808C148.193 333.52 147.654 333.12 147.217 332.608C146.79 332.096 146.47 331.483 146.257 330.768C146.044 330.053 145.937 329.264 145.937 328.4ZM148.449 328.4C148.449 328.955 148.502 329.461 148.609 329.92C148.716 330.379 148.876 330.773 149.089 331.104C149.302 331.435 149.574 331.691 149.905 331.872C150.246 332.053 150.646 332.144 151.105 332.144C151.948 332.144 152.604 331.856 153.073 331.28C153.542 330.704 153.777 329.744 153.777 328.4C153.777 327.867 153.729 327.371 153.633 326.912C153.537 326.453 153.377 326.059 153.153 325.728C152.94 325.387 152.662 325.125 152.321 324.944C151.99 324.752 151.585 324.656 151.105 324.656C150.273 324.656 149.622 324.955 149.153 325.552C148.684 326.149 148.449 327.099 148.449 328.4ZM157.962 322.912C158.442 322.827 158.975 322.763 159.562 322.72C160.149 322.667 160.735 322.64 161.322 322.64C161.919 322.64 162.522 322.688 163.13 322.784C163.738 322.869 164.282 323.051 164.762 323.328C165.253 323.595 165.653 323.973 165.962 324.464C166.271 324.944 166.426 325.584 166.426 326.384C166.426 327.088 166.293 327.691 166.026 328.192C165.759 328.683 165.402 329.083 164.954 329.392C164.517 329.701 164.015 329.931 163.45 330.08C162.885 330.219 162.303 330.288 161.706 330.288C161.653 330.288 161.562 330.288 161.434 330.288C161.306 330.288 161.167 330.288 161.018 330.288C160.879 330.277 160.746 330.267 160.618 330.256C160.49 330.245 160.394 330.235 160.33 330.224V334H157.962V322.912ZM161.482 324.72C161.258 324.72 161.039 324.725 160.826 324.736C160.623 324.747 160.458 324.768 160.33 324.8V328.128C160.373 328.139 160.442 328.149 160.538 328.16C160.634 328.171 160.735 328.181 160.842 328.192C160.949 328.192 161.045 328.197 161.13 328.208C161.226 328.208 161.301 328.208 161.354 328.208C161.663 328.208 161.973 328.187 162.282 328.144C162.591 328.101 162.863 328.011 163.098 327.872C163.343 327.733 163.541 327.547 163.69 327.312C163.839 327.067 163.914 326.741 163.914 326.336C163.914 325.995 163.845 325.723 163.706 325.52C163.567 325.307 163.381 325.141 163.146 325.024C162.922 324.907 162.661 324.827 162.362 324.784C162.074 324.741 161.781 324.72 161.482 324.72ZM174.54 324.88H170.252V334H167.884V322.8H176.908V334H174.54V324.88Z" fill="#333333"/>
<rect x="304" y="191" width="2.00001" height="288" transform="rotate(90 304 191)" fill="#EAEAEA"/>
<path d="M55.232 86.44C55.232 86.7173 55.1893 86.9947 55.104 87.272C55.0293 87.5387 54.9067 87.7893 54.736 88.024C54.5653 88.2587 54.3413 88.4613 54.064 88.632C53.7867 88.8027 53.4507 88.9253 53.056 89V89.096C53.408 89.128 53.7387 89.208 54.048 89.336C54.3573 89.464 54.624 89.6453 54.848 89.88C55.0827 90.104 55.264 90.3813 55.392 90.712C55.5307 91.032 55.6 91.4107 55.6 91.848C55.6 92.4347 55.4613 92.936 55.184 93.352C54.9173 93.768 54.5653 94.1093 54.128 94.376C53.6907 94.6427 53.1893 94.84 52.624 94.968C52.0587 95.096 51.4827 95.16 50.896 95.16C50.704 95.16 50.448 95.16 50.128 95.16C49.8187 95.16 49.4827 95.1493 49.12 95.128C48.768 95.1173 48.4053 95.096 48.032 95.064C47.6693 95.032 47.3387 94.984 47.04 94.92V83.88C47.264 83.848 47.5147 83.816 47.792 83.784C48.08 83.752 48.384 83.7253 48.704 83.704C49.0347 83.6827 49.3707 83.6667 49.712 83.656C50.0533 83.6453 50.3947 83.64 50.736 83.64C51.2907 83.64 51.8347 83.6827 52.368 83.768C52.9013 83.8427 53.3813 83.9867 53.808 84.2C54.2347 84.4027 54.576 84.6853 54.832 85.048C55.0987 85.4107 55.232 85.8747 55.232 86.44ZM50.864 93.24C51.1627 93.24 51.4453 93.2133 51.712 93.16C51.9893 93.1067 52.2293 93.0213 52.432 92.904C52.6453 92.776 52.8107 92.6213 52.928 92.44C53.056 92.248 53.12 92.0133 53.12 91.736C53.12 91.3947 53.0453 91.1227 52.896 90.92C52.7467 90.7173 52.5493 90.568 52.304 90.472C52.0693 90.3653 51.8027 90.3013 51.504 90.28C51.216 90.248 50.9227 90.232 50.624 90.232H49.312V93.144C49.376 93.1653 49.4667 93.1813 49.584 93.192C49.712 93.2027 49.8507 93.2133 50 93.224C50.1493 93.224 50.2987 93.2293 50.448 93.24C50.608 93.24 50.7467 93.24 50.864 93.24ZM50.112 88.472C50.272 88.472 50.4587 88.472 50.672 88.472C50.896 88.4613 51.0827 88.4453 51.232 88.424C51.68 88.2853 52.0587 88.0987 52.368 87.864C52.6773 87.6187 52.832 87.288 52.832 86.872C52.832 86.5947 52.7733 86.3707 52.656 86.2C52.5387 86.0293 52.3787 85.896 52.176 85.8C51.984 85.704 51.7653 85.64 51.52 85.608C51.2747 85.576 51.024 85.56 50.768 85.56C50.4587 85.56 50.176 85.5653 49.92 85.576C49.664 85.5867 49.4613 85.6027 49.312 85.624V88.472H50.112ZM56.922 90.808C56.922 89.4213 57.29 88.3333 58.026 87.544C58.762 86.7547 59.8127 86.36 61.178 86.36C61.8927 86.36 62.5167 86.472 63.05 86.696C63.5833 86.92 64.026 87.2347 64.378 87.64C64.73 88.0347 64.9913 88.504 65.162 89.048C65.3433 89.5813 65.434 90.168 65.434 90.808C65.434 91.4907 65.338 92.1093 65.146 92.664C64.954 93.208 64.6767 93.672 64.314 94.056C63.9513 94.44 63.5033 94.7333 62.97 94.936C62.4473 95.1387 61.85 95.24 61.178 95.24C60.4527 95.24 59.8233 95.128 59.29 94.904C58.7567 94.68 58.314 94.3707 57.962 93.976C57.61 93.5707 57.3487 93.1013 57.178 92.568C57.0073 92.024 56.922 91.4373 56.922 90.808ZM59.226 90.808C59.226 91.16 59.2633 91.4907 59.338 91.8C59.4127 92.1093 59.5247 92.3813 59.674 92.616C59.834 92.84 60.0367 93.0213 60.282 93.16C60.5273 93.2987 60.826 93.368 61.178 93.368C62.4793 93.368 63.13 92.5147 63.13 90.808C63.13 90.4347 63.0927 90.0933 63.018 89.784C62.954 89.464 62.842 89.192 62.682 88.968C62.5327 88.7333 62.33 88.552 62.074 88.424C61.8287 88.296 61.53 88.232 61.178 88.232C60.57 88.232 60.09 88.4347 59.738 88.84C59.3967 89.2453 59.226 89.9013 59.226 90.808ZM68.1094 91.512V90.008H69.1494C69.6294 90.008 70.008 89.9333 70.2854 89.784C70.5627 89.624 70.7014 89.4107 70.7014 89.144C70.7014 88.8347 70.5787 88.6213 70.3334 88.504C70.088 88.376 69.704 88.312 69.1814 88.312C68.7227 88.312 68.3014 88.3707 67.9174 88.488C67.544 88.5947 67.2347 88.7067 66.9894 88.824C66.904 88.536 66.8294 88.264 66.7654 88.008C66.712 87.7413 66.6427 87.464 66.5574 87.176C66.9094 86.9627 67.384 86.7867 67.9814 86.648C68.5787 86.5093 69.2134 86.44 69.8854 86.44C70.92 86.44 71.688 86.6213 72.1894 86.984C72.7014 87.336 72.9574 87.848 72.9574 88.52C72.9574 88.712 72.9254 88.904 72.8614 89.096C72.808 89.288 72.7227 89.4747 72.6054 89.656C72.488 89.8267 72.3387 89.9867 72.1574 90.136C71.976 90.2747 71.7627 90.3867 71.5174 90.472V90.6C72.1787 90.7387 72.6427 90.9787 72.9094 91.32C73.176 91.6507 73.3094 92.0987 73.3094 92.664C73.3094 93.016 73.2294 93.3467 73.0694 93.656C72.92 93.9547 72.6854 94.2213 72.3654 94.456C72.0454 94.6907 71.64 94.872 71.1494 95C70.6694 95.1387 70.0987 95.208 69.4374 95.208C68.7974 95.208 68.2267 95.1387 67.7254 95C67.224 94.8613 66.8134 94.7067 66.4934 94.536C66.568 94.248 66.648 93.96 66.7334 93.672C66.8187 93.384 66.904 93.096 66.9894 92.808C67.2774 92.9573 67.624 93.0853 68.0294 93.192C68.4454 93.288 68.8934 93.336 69.3734 93.336C70.504 93.336 71.0694 93.0107 71.0694 92.36C71.0694 92.2107 71.032 92.0827 70.9574 91.976C70.8934 91.8693 70.7814 91.784 70.6214 91.72C70.4614 91.6453 70.2427 91.592 69.9654 91.56C69.6987 91.528 69.3574 91.512 68.9414 91.512H68.1094ZM82.9626 91.272L83.1226 89.448H82.8666L82.1146 90.888V90.872L80.4186 93.48H79.6346L77.7626 90.872V90.888L77.0106 89.448H76.7866L77.0266 91.256V95H75.0426V86.6H77.3946L79.4906 89.736V89.72L80.0506 90.792H80.2266L80.7866 89.688V89.704L82.7386 86.6H85.0906V95H82.9626V91.272ZM86.922 90.808C86.922 89.4213 87.29 88.3333 88.026 87.544C88.762 86.7547 89.8127 86.36 91.178 86.36C91.8927 86.36 92.5167 86.472 93.05 86.696C93.5833 86.92 94.026 87.2347 94.378 87.64C94.73 88.0347 94.9913 88.504 95.162 89.048C95.3433 89.5813 95.434 90.168 95.434 90.808C95.434 91.4907 95.338 92.1093 95.146 92.664C94.954 93.208 94.6767 93.672 94.314 94.056C93.9513 94.44 93.5033 94.7333 92.97 94.936C92.4473 95.1387 91.85 95.24 91.178 95.24C90.4527 95.24 89.8233 95.128 89.29 94.904C88.7567 94.68 88.314 94.3707 87.962 93.976C87.61 93.5707 87.3487 93.1013 87.178 92.568C87.0073 92.024 86.922 91.4373 86.922 90.808ZM89.226 90.808C89.226 91.16 89.2633 91.4907 89.338 91.8C89.4127 92.1093 89.5247 92.3813 89.674 92.616C89.834 92.84 90.0367 93.0213 90.282 93.16C90.5273 93.2987 90.826 93.368 91.178 93.368C92.4793 93.368 93.13 92.5147 93.13 90.808C93.13 90.4347 93.0927 90.0933 93.018 89.784C92.954 89.464 92.842 89.192 92.682 88.968C92.5327 88.7333 92.33 88.552 92.074 88.424C91.8287 88.296 91.53 88.232 91.178 88.232C90.57 88.232 90.09 88.4347 89.738 88.84C89.3967 89.2453 89.226 89.9013 89.226 90.808ZM100.528 91.576L98.6556 95H96.1116L98.4796 91.192H98.4636L99.1356 90.648L98.1596 89.96L96.2716 86.6H98.7196L100.432 90.008H101.36V86.6H103.472V90.232L104.304 89.944C104.581 89.3787 104.869 88.824 105.168 88.28C105.466 87.7253 105.754 87.1653 106.032 86.6H108.448C108.106 87.176 107.776 87.736 107.456 88.28C107.136 88.824 106.805 89.384 106.464 89.96H106.48L105.728 90.552L106.704 91.256H106.688L108.88 95H106.288L104.4 91.512H103.472V95H101.36V91.304L100.528 91.576ZM115.545 91.752H112.361V95H110.121V86.6H112.361V89.72H115.545V86.6H117.785V95H115.545V91.752ZM119.61 90.808C119.61 89.4213 119.978 88.3333 120.714 87.544C121.45 86.7547 122.5 86.36 123.866 86.36C124.58 86.36 125.204 86.472 125.738 86.696C126.271 86.92 126.714 87.2347 127.066 87.64C127.418 88.0347 127.679 88.504 127.85 89.048C128.031 89.5813 128.122 90.168 128.122 90.808C128.122 91.4907 128.026 92.1093 127.834 92.664C127.642 93.208 127.364 93.672 127.002 94.056C126.639 94.44 126.191 94.7333 125.658 94.936C125.135 95.1387 124.538 95.24 123.866 95.24C123.14 95.24 122.511 95.128 121.978 94.904C121.444 94.68 121.002 94.3707 120.65 93.976C120.298 93.5707 120.036 93.1013 119.866 92.568C119.695 92.024 119.61 91.4373 119.61 90.808ZM121.914 90.808C121.914 91.16 121.951 91.4907 122.026 91.8C122.1 92.1093 122.212 92.3813 122.362 92.616C122.522 92.84 122.724 93.0213 122.97 93.16C123.215 93.2987 123.514 93.368 123.866 93.368C125.167 93.368 125.818 92.5147 125.818 90.808C125.818 90.4347 125.78 90.0933 125.706 89.784C125.642 89.464 125.53 89.192 125.37 88.968C125.22 88.7333 125.018 88.552 124.762 88.424C124.516 88.296 124.218 88.232 123.866 88.232C123.258 88.232 122.778 88.4347 122.426 88.84C122.084 89.2453 121.914 89.9013 121.914 90.808ZM136.285 94.488C135.922 94.7333 135.485 94.92 134.973 95.048C134.472 95.176 133.949 95.24 133.405 95.24C132.68 95.24 132.066 95.1333 131.565 94.92C131.074 94.7067 130.669 94.4027 130.349 94.008C130.04 93.6133 129.816 93.1493 129.677 92.616C129.538 92.072 129.469 91.4693 129.469 90.808C129.469 89.4107 129.81 88.3227 130.493 87.544C131.186 86.7547 132.189 86.36 133.501 86.36C134.141 86.36 134.664 86.4133 135.069 86.52C135.485 86.616 135.853 86.744 136.173 86.904L135.629 88.696C135.352 88.5787 135.074 88.4933 134.797 88.44C134.53 88.376 134.216 88.344 133.853 88.344C133.181 88.344 132.664 88.5413 132.301 88.936C131.949 89.32 131.773 89.944 131.773 90.808C131.773 91.1493 131.816 91.4693 131.901 91.768C131.986 92.056 132.12 92.312 132.301 92.536C132.482 92.76 132.712 92.936 132.989 93.064C133.266 93.192 133.592 93.256 133.965 93.256C134.413 93.256 134.765 93.2187 135.021 93.144C135.288 93.0587 135.538 92.9467 135.773 92.808L136.285 94.488ZM144.352 88.584H141.744V95H139.408V88.584H136.8V86.6H144.352V88.584ZM151.204 91.208L151.3 89.784L150.292 91.192L146.98 95H145.636V86.6H147.876V90.552L147.796 91.704H147.988C148.116 91.5227 148.244 91.3307 148.372 91.128C148.511 90.9253 148.644 90.7333 148.772 90.552L152.1 86.6H153.444V95H151.204V91.208Z" fill="#333333"/>
<path d="M165 360L154 371L149 366" stroke="#178A00" stroke-width="3" stroke-linecap="round" stroke-linejoin="round"/>
<path d="M148 259H166" stroke="url(#paint0_linear_555_2)" stroke-width="3" stroke-linecap="round" stroke-linejoin="round"/>
<path d="M16.96 -26.4C16.96 -27.776 17.136 -29.008 17.488 -30.096C17.84 -31.184 18.344 -32.096 19 -32.832C19.672 -33.584 20.488 -34.152 21.448 -34.536C22.408 -34.936 23.496 -35.136 24.712 -35.136C26.008 -35.136 27.136 -34.92 28.096 -34.488C29.072 -34.072 29.88 -33.48 30.52 -32.712C31.176 -31.944 31.664 -31.024 31.984 -29.952C32.32 -28.88 32.488 -27.696 32.488 -26.4C32.488 -25.024 32.304 -23.792 31.936 -22.704C31.584 -21.616 31.072 -20.696 30.4 -19.944C29.728 -19.208 28.912 -18.64 27.952 -18.24C26.992 -17.856 25.912 -17.664 24.712 -17.664C23.416 -17.664 22.28 -17.872 21.304 -18.288C20.344 -18.72 19.536 -19.32 18.88 -20.088C18.24 -20.856 17.76 -21.776 17.44 -22.848C17.12 -23.92 16.96 -25.104 16.96 -26.4ZM20.728 -26.4C20.728 -25.568 20.808 -24.808 20.968 -24.12C21.128 -23.432 21.368 -22.84 21.688 -22.344C22.008 -21.848 22.416 -21.464 22.912 -21.192C23.424 -20.92 24.024 -20.784 24.712 -20.784C25.976 -20.784 26.96 -21.216 27.664 -22.08C28.368 -22.944 28.72 -24.384 28.72 -26.4C28.72 -27.2 28.648 -27.944 28.504 -28.632C28.36 -29.32 28.12 -29.912 27.784 -30.408C27.464 -30.92 27.048 -31.312 26.536 -31.584C26.04 -31.872 25.432 -32.016 24.712 -32.016C23.464 -32.016 22.488 -31.568 21.784 -30.672C21.08 -29.776 20.728 -28.352 20.728 -26.4ZM45.1216 -27.624H41.2096V-18H37.7056V-27.624H33.7936V-30.6H45.1216V-27.624ZM53.6474 -27.624H50.6954C50.6474 -26.28 50.5434 -25.016 50.3834 -23.832C50.2394 -22.648 49.9994 -21.608 49.6634 -20.712C49.3274 -19.832 48.8794 -19.136 48.3194 -18.624C47.7754 -18.112 47.0714 -17.856 46.2074 -17.856C45.1994 -17.856 44.4874 -17.968 44.0714 -18.192L44.5514 -21.168C44.8234 -21.088 45.0714 -21.048 45.2954 -21.048C45.6794 -21.048 46.0154 -21.184 46.3034 -21.456C46.5914 -21.728 46.8314 -22.216 47.0234 -22.92C47.2154 -23.64 47.3674 -24.616 47.4794 -25.848C47.6074 -27.08 47.7034 -28.664 47.7674 -30.6H57.0074V-18H53.6474V-27.624ZM68.8066 -23.688L68.9506 -25.824L67.4386 -23.712L62.4706 -18H60.4546V-30.6H63.8146V-24.672L63.6946 -22.944H63.9826C64.1746 -23.216 64.3666 -23.504 64.5586 -23.808C64.7666 -24.112 64.9666 -24.4 65.1586 -24.672L70.1506 -30.6H72.1666V-18H68.8066V-23.688ZM78.2586 -30.6V-28.128C78.2586 -27.52 78.2826 -27 78.3306 -26.568C78.3946 -26.152 78.4986 -25.808 78.6426 -25.536C78.7866 -25.264 78.9946 -25.064 79.2666 -24.936C79.5386 -24.824 79.8906 -24.768 80.3226 -24.768C80.8506 -24.768 81.3226 -24.832 81.7386 -24.96C82.1546 -25.104 82.4986 -25.272 82.7706 -25.464V-30.6H86.1306V-18H82.7706V-23.136C82.5946 -23.024 82.3946 -22.896 82.1706 -22.752C81.9466 -22.624 81.6826 -22.496 81.3786 -22.368C81.0746 -22.256 80.7306 -22.16 80.3466 -22.08C79.9626 -22 79.5386 -21.96 79.0746 -21.96C78.4186 -21.96 77.8266 -22.024 77.2986 -22.152C76.7866 -22.296 76.3466 -22.536 75.9786 -22.872C75.6266 -23.224 75.3546 -23.68 75.1626 -24.24C74.9866 -24.816 74.8986 -25.536 74.8986 -26.4V-30.6H78.2586ZM97.9394 -23.688L98.0834 -25.824L96.5714 -23.712L91.6034 -18H89.5874V-30.6H92.9474V-24.672L92.8274 -22.944H93.1154C93.3074 -23.216 93.4994 -23.504 93.6914 -23.808C93.8994 -24.112 94.0994 -24.4 94.2914 -24.672L99.2834 -30.6H101.299V-18H97.9394V-23.688ZM112.071 -22.296L110.175 -21.984L107.559 -18H103.455L106.167 -21.864L107.583 -22.44C106.959 -22.504 106.439 -22.664 106.023 -22.92C105.607 -23.176 105.271 -23.488 105.015 -23.856C104.759 -24.24 104.575 -24.656 104.463 -25.104C104.367 -25.568 104.319 -26.04 104.319 -26.52C104.319 -28.04 104.863 -29.16 105.951 -29.88C107.055 -30.6 108.751 -30.96 111.039 -30.96C111.855 -30.96 112.647 -30.92 113.415 -30.84C114.183 -30.76 114.855 -30.672 115.431 -30.576V-18H112.071V-22.296ZM112.071 -24.408V-27.888C111.863 -27.968 111.623 -28.032 111.351 -28.08C111.079 -28.128 110.815 -28.152 110.559 -28.152C109.663 -28.152 108.983 -27.992 108.519 -27.672C108.055 -27.368 107.823 -26.88 107.823 -26.208C107.823 -25.552 108.079 -25.08 108.591 -24.792C109.119 -24.504 109.903 -24.36 110.943 -24.36L112.071 -24.408ZM131.829 -17.904C131.413 -17.776 131.037 -17.704 130.701 -17.688C130.365 -17.656 130.061 -17.64 129.789 -17.64C128.125 -17.64 126.853 -18.184 125.973 -19.272C125.093 -20.376 124.653 -22.048 124.653 -24.288C124.653 -26.416 125.141 -28.04 126.117 -29.16C127.093 -30.28 128.501 -30.84 130.341 -30.84C130.565 -30.84 130.797 -30.832 131.037 -30.816C131.277 -30.8 131.541 -30.768 131.829 -30.72V-34.8H135.069V-30.696C135.485 -30.76 135.829 -30.8 136.101 -30.816C136.389 -30.832 136.645 -30.84 136.869 -30.84C138.661 -30.84 140.005 -30.352 140.901 -29.376C141.797 -28.4 142.245 -26.792 142.245 -24.552C142.245 -23.512 142.125 -22.56 141.885 -21.696C141.645 -20.848 141.293 -20.12 140.829 -19.512C140.365 -18.92 139.789 -18.456 139.101 -18.12C138.413 -17.8 137.621 -17.64 136.725 -17.64C136.565 -17.64 136.309 -17.664 135.957 -17.712C135.621 -17.744 135.325 -17.8 135.069 -17.88V-13.2H131.829V-17.904ZM134.925 -20.376C135.133 -20.328 135.333 -20.296 135.525 -20.28C135.733 -20.28 135.965 -20.28 136.221 -20.28C137.133 -20.28 137.805 -20.608 138.237 -21.264C138.669 -21.936 138.885 -23.032 138.885 -24.552C138.885 -25.848 138.677 -26.784 138.261 -27.36C137.845 -27.936 137.117 -28.224 136.077 -28.224C135.869 -28.224 135.677 -28.208 135.501 -28.176C135.341 -28.16 135.149 -28.12 134.925 -28.056V-20.376ZM131.973 -28.08C131.701 -28.144 131.485 -28.184 131.325 -28.2C131.165 -28.216 130.973 -28.224 130.749 -28.224C129.853 -28.224 129.173 -27.92 128.709 -27.312C128.245 -26.72 128.013 -25.712 128.013 -24.288C128.013 -23.04 128.229 -22.056 128.661 -21.336C129.093 -20.632 129.765 -20.28 130.677 -20.28C131.077 -20.28 131.509 -20.336 131.973 -20.448V-28.08ZM149.109 -23.616L149.637 -21.6H149.877L150.333 -23.616L152.469 -30.6H155.901L151.725 -19.2C151.373 -18.256 151.037 -17.408 150.717 -16.656C150.413 -15.904 150.077 -15.264 149.709 -14.736C149.341 -14.208 148.925 -13.808 148.461 -13.536C148.013 -13.248 147.477 -13.104 146.853 -13.104C146.437 -13.104 146.037 -13.144 145.653 -13.224C145.285 -13.288 144.965 -13.392 144.693 -13.536L145.389 -16.128C145.629 -16.048 145.877 -16.008 146.133 -16.008C146.357 -16.008 146.573 -16.032 146.781 -16.08C146.989 -16.128 147.181 -16.224 147.357 -16.368C147.533 -16.496 147.693 -16.688 147.837 -16.944C147.997 -17.184 148.133 -17.512 148.245 -17.928L142.485 -30.6H146.541L149.109 -23.616ZM165.622 -22.872H160.846V-18H157.486V-30.6H160.846V-25.92H165.622V-30.6H168.982V-18H165.622V-22.872ZM176.975 -23.232H175.799V-18H172.439V-30.6H175.799V-25.152L176.879 -25.608L180.095 -30.6H183.719C183.159 -29.832 182.607 -29.056 182.063 -28.272C181.535 -27.504 180.999 -26.736 180.455 -25.968L178.871 -24.912L180.551 -23.88C181.159 -22.888 181.775 -21.904 182.399 -20.928C183.023 -19.968 183.639 -18.992 184.247 -18H180.359L176.975 -23.232ZM199.258 -15.144H196.882L196.474 -18H185.986V-30.6H189.346V-20.976H193.882V-30.6H197.242V-20.976H199.258V-15.144ZM209.807 -23.688L209.951 -25.824L208.439 -23.712L203.471 -18H201.455V-30.6H204.815V-24.672L204.695 -22.944H204.983C205.175 -23.216 205.367 -23.504 205.559 -23.808C205.767 -24.112 205.967 -24.4 206.159 -24.672L211.151 -30.6H213.167V-18H209.807V-23.688ZM215.899 -24.288C215.899 -26.368 216.451 -28 217.555 -29.184C218.659 -30.368 220.235 -30.96 222.283 -30.96C223.355 -30.96 224.291 -30.792 225.091 -30.456C225.891 -30.12 226.555 -29.648 227.083 -29.04C227.611 -28.448 228.003 -27.744 228.259 -26.928C228.531 -26.128 228.667 -25.248 228.667 -24.288C228.667 -23.264 228.523 -22.336 228.235 -21.504C227.947 -20.688 227.531 -19.992 226.987 -19.416C226.443 -18.84 225.771 -18.4 224.971 -18.096C224.187 -17.792 223.291 -17.64 222.283 -17.64C221.195 -17.64 220.251 -17.808 219.451 -18.144C218.651 -18.48 217.987 -18.944 217.459 -19.536C216.931 -20.144 216.539 -20.848 216.283 -21.648C216.027 -22.464 215.899 -23.344 215.899 -24.288ZM219.355 -24.288C219.355 -23.76 219.411 -23.264 219.523 -22.8C219.635 -22.336 219.803 -21.928 220.027 -21.576C220.267 -21.24 220.571 -20.968 220.939 -20.76C221.307 -20.552 221.755 -20.448 222.283 -20.448C224.235 -20.448 225.211 -21.728 225.211 -24.288C225.211 -24.848 225.155 -25.36 225.043 -25.824C224.947 -26.304 224.779 -26.712 224.539 -27.048C224.315 -27.4 224.011 -27.672 223.627 -27.864C223.259 -28.056 222.811 -28.152 222.283 -28.152C221.371 -28.152 220.651 -27.848 220.123 -27.24C219.611 -26.632 219.355 -25.648 219.355 -24.288ZM239.544 -22.872H234.768V-18H231.408V-30.6H234.768V-25.92H239.544V-30.6H242.904V-18H239.544V-22.872ZM246.241 -29.736C246.961 -30.056 247.841 -30.32 248.881 -30.528C249.937 -30.736 251.025 -30.84 252.145 -30.84C253.025 -30.84 253.761 -30.736 254.353 -30.528C254.961 -30.32 255.441 -30.016 255.793 -29.616C256.145 -29.232 256.393 -28.76 256.537 -28.2C256.697 -27.656 256.777 -27.048 256.777 -26.376C256.777 -25.56 256.745 -24.752 256.681 -23.952C256.617 -23.152 256.585 -22.304 256.585 -21.408C256.585 -20.8 256.625 -20.208 256.705 -19.632C256.785 -19.056 256.913 -18.504 257.089 -17.976H254.353L253.801 -19.848H253.513C253.097 -19.288 252.569 -18.808 251.929 -18.408C251.289 -18.008 250.465 -17.808 249.457 -17.808C248.849 -17.808 248.289 -17.896 247.777 -18.072C247.281 -18.248 246.849 -18.496 246.481 -18.816C246.129 -19.152 245.849 -19.544 245.641 -19.992C245.449 -20.44 245.353 -20.928 245.353 -21.456C245.353 -22.88 245.825 -23.952 246.769 -24.672C247.729 -25.408 249.177 -25.776 251.113 -25.776C251.561 -25.776 252.009 -25.736 252.457 -25.656C252.905 -25.592 253.217 -25.544 253.393 -25.512C253.441 -25.848 253.465 -26.136 253.465 -26.376C253.465 -26.984 253.313 -27.432 253.009 -27.72C252.705 -28.008 252.137 -28.152 251.305 -28.152C250.537 -28.152 249.785 -28.056 249.049 -27.864C248.329 -27.688 247.689 -27.464 247.129 -27.192L246.241 -29.736ZM250.633 -20.496C251.385 -20.496 251.985 -20.672 252.433 -21.024C252.881 -21.376 253.209 -21.744 253.417 -22.128V-23.568C253.337 -23.6 253.209 -23.632 253.033 -23.664C252.873 -23.696 252.689 -23.728 252.481 -23.76C252.289 -23.792 252.089 -23.816 251.881 -23.832C251.689 -23.848 251.513 -23.856 251.353 -23.856C250.489 -23.856 249.849 -23.696 249.433 -23.376C249.017 -23.072 248.809 -22.688 248.809 -22.224C248.809 -21.648 248.969 -21.216 249.289 -20.928C249.625 -20.64 250.073 -20.496 250.633 -20.496ZM267.819 -27.624H264.867C264.819 -26.28 264.715 -25.016 264.555 -23.832C264.411 -22.648 264.171 -21.608 263.835 -20.712C263.499 -19.832 263.051 -19.136 262.491 -18.624C261.947 -18.112 261.243 -17.856 260.379 -17.856C259.371 -17.856 258.659 -17.968 258.243 -18.192L258.723 -21.168C258.995 -21.088 259.243 -21.048 259.467 -21.048C259.851 -21.048 260.187 -21.184 260.475 -21.456C260.763 -21.728 261.003 -22.216 261.195 -22.92C261.387 -23.64 261.539 -24.616 261.651 -25.848C261.779 -27.08 261.875 -28.664 261.939 -30.6H271.179V-18H267.819V-27.624ZM274.506 -29.736C275.226 -30.056 276.106 -30.32 277.146 -30.528C278.202 -30.736 279.29 -30.84 280.41 -30.84C281.29 -30.84 282.026 -30.736 282.618 -30.528C283.226 -30.32 283.706 -30.016 284.058 -29.616C284.41 -29.232 284.658 -28.76 284.802 -28.2C284.962 -27.656 285.042 -27.048 285.042 -26.376C285.042 -25.56 285.01 -24.752 284.946 -23.952C284.882 -23.152 284.85 -22.304 284.85 -21.408C284.85 -20.8 284.89 -20.208 284.97 -19.632C285.05 -19.056 285.178 -18.504 285.354 -17.976H282.618L282.066 -19.848H281.778C281.362 -19.288 280.834 -18.808 280.194 -18.408C279.554 -18.008 278.73 -17.808 277.722 -17.808C277.114 -17.808 276.554 -17.896 276.042 -18.072C275.546 -18.248 275.114 -18.496 274.746 -18.816C274.394 -19.152 274.114 -19.544 273.906 -19.992C273.714 -20.44 273.618 -20.928 273.618 -21.456C273.618 -22.88 274.09 -23.952 275.034 -24.672C275.994 -25.408 277.442 -25.776 279.378 -25.776C279.826 -25.776 280.274 -25.736 280.722 -25.656C281.17 -25.592 281.482 -25.544 281.658 -25.512C281.706 -25.848 281.73 -26.136 281.73 -26.376C281.73 -26.984 281.578 -27.432 281.274 -27.72C280.97 -28.008 280.402 -28.152 279.57 -28.152C278.802 -28.152 278.05 -28.056 277.314 -27.864C276.594 -27.688 275.954 -27.464 275.394 -27.192L274.506 -29.736ZM278.898 -20.496C279.65 -20.496 280.25 -20.672 280.698 -21.024C281.146 -21.376 281.474 -21.744 281.682 -22.128V-23.568C281.602 -23.6 281.474 -23.632 281.298 -23.664C281.138 -23.696 280.954 -23.728 280.746 -23.76C280.554 -23.792 280.354 -23.816 280.146 -23.832C279.954 -23.848 279.778 -23.856 279.618 -23.856C278.754 -23.856 278.114 -23.696 277.698 -23.376C277.282 -23.072 277.074 -22.688 277.074 -22.224C277.074 -21.648 277.234 -21.216 277.554 -20.928C277.89 -20.64 278.338 -20.496 278.898 -20.496ZM17.728 3.4C18.384 3.352 19.152 3.304 20.032 3.256C20.912 3.208 21.88 3.184 22.936 3.184C24.92 3.184 26.328 3.448 27.16 3.976C27.992 4.504 28.408 5.288 28.408 6.328C28.408 6.92 28.224 7.488 27.856 8.032C27.488 8.576 26.912 8.984 26.128 9.256V9.448C27.12 9.656 27.84 10.016 28.288 10.528C28.752 11.024 28.984 11.672 28.984 12.472C28.984 13.72 28.456 14.656 27.4 15.28C26.344 15.904 24.664 16.216 22.36 16.216C21.608 16.216 20.808 16.192 19.96 16.144C19.128 16.112 18.384 16.064 17.728 16V3.4ZM21.016 13.432C21.336 13.496 21.608 13.536 21.832 13.552C22.072 13.568 22.352 13.576 22.672 13.576C23.76 13.576 24.512 13.448 24.928 13.192C25.36 12.92 25.576 12.536 25.576 12.04C25.576 11.592 25.392 11.232 25.024 10.96C24.656 10.672 23.984 10.528 23.008 10.528H21.016V13.432ZM23.056 8.536C23.696 8.536 24.216 8.416 24.616 8.176C25.016 7.92 25.216 7.592 25.216 7.192C25.216 6.76 25.04 6.424 24.688 6.184C24.352 5.944 23.736 5.824 22.84 5.824C22.52 5.824 22.256 5.832 22.048 5.848C21.84 5.864 21.648 5.88 21.472 5.896C21.408 5.896 21.328 5.904 21.232 5.92C21.136 5.92 21.064 5.92 21.016 5.92V8.536H23.056ZM42.3556 14.848C41.8116 15.264 41.0676 15.624 40.1236 15.928C39.1956 16.216 38.1956 16.36 37.1236 16.36C34.9636 16.36 33.3796 15.768 32.3716 14.584C31.3636 13.4 30.8596 11.776 30.8596 9.712C30.8596 7.52 31.4276 5.864 32.5636 4.744C33.6996 3.608 35.2996 3.04 37.3636 3.04C38.0356 3.04 38.6996 3.128 39.3556 3.304C40.0116 3.464 40.5956 3.744 41.1076 4.144C41.6196 4.528 42.0276 5.056 42.3316 5.728C42.6516 6.384 42.8116 7.2 42.8116 8.176C42.8116 8.512 42.7876 8.88 42.7396 9.28C42.7076 9.68 42.6436 10.096 42.5476 10.528H34.1476C34.2276 11.616 34.5396 12.424 35.0836 12.952C35.6436 13.464 36.5476 13.72 37.7956 13.72C38.5476 13.72 39.2196 13.616 39.8116 13.408C40.4196 13.184 40.8836 12.96 41.2036 12.736L42.3556 14.848ZM37.3156 5.68C36.3236 5.68 35.5876 5.952 35.1076 6.496C34.6276 7.024 34.3476 7.704 34.2676 8.536H39.6916C39.7556 7.656 39.5956 6.96 39.2116 6.448C38.8276 5.936 38.1956 5.68 37.3156 5.68ZM45.8296 3.4H48.2296L48.6376 4.96H48.9256C49.4216 4.32 49.9976 3.84 50.6536 3.52C51.3096 3.2 52.0776 3.04 52.9576 3.04C54.6536 3.04 55.9256 3.552 56.7736 4.576C57.6216 5.584 58.0456 7.192 58.0456 9.4C58.0456 10.456 57.9096 11.416 57.6376 12.28C57.3656 13.128 56.9656 13.864 56.4376 14.488C55.9096 15.096 55.2536 15.568 54.4696 15.904C53.7016 16.224 52.8136 16.384 51.8056 16.384C51.2616 16.384 50.7896 16.328 50.3896 16.216C49.9896 16.12 49.5896 15.984 49.1896 15.808V20.776H45.8296V3.4ZM51.9256 5.848C51.1576 5.848 50.5656 6.024 50.1496 6.376C49.7336 6.712 49.4136 7.24 49.1896 7.96V12.856C49.4616 13.08 49.7656 13.256 50.1016 13.384C50.4376 13.512 50.8616 13.576 51.3736 13.576C52.4616 13.576 53.2696 13.24 53.7976 12.568C54.3256 11.88 54.5896 10.792 54.5896 9.304C54.5896 8.232 54.3816 7.392 53.9656 6.784C53.5656 6.16 52.8856 5.848 51.9256 5.848ZM70.2867 15.232C69.7427 15.6 69.0867 15.88 68.3187 16.072C67.5667 16.264 66.7827 16.36 65.9667 16.36C64.8787 16.36 63.9587 16.2 63.2067 15.88C62.4707 15.56 61.8627 15.104 61.3827 14.512C60.9187 13.92 60.5827 13.224 60.3747 12.424C60.1667 11.608 60.0627 10.704 60.0627 9.712C60.0627 7.616 60.5747 5.984 61.5987 4.816C62.6387 3.632 64.1427 3.04 66.1107 3.04C67.0707 3.04 67.8547 3.12 68.4627 3.28C69.0867 3.424 69.6387 3.616 70.1187 3.856L69.3027 6.544C68.8867 6.368 68.4707 6.24 68.0547 6.16C67.6547 6.064 67.1827 6.016 66.6387 6.016C65.6307 6.016 64.8547 6.312 64.3107 6.904C63.7827 7.48 63.5187 8.416 63.5187 9.712C63.5187 10.224 63.5827 10.704 63.7107 11.152C63.8387 11.584 64.0387 11.968 64.3107 12.304C64.5827 12.64 64.9267 12.904 65.3427 13.096C65.7587 13.288 66.2467 13.384 66.8067 13.384C67.4787 13.384 68.0067 13.328 68.3907 13.216C68.7907 13.088 69.1667 12.92 69.5187 12.712L70.2867 15.232ZM81.1347 10.312L81.2787 8.176L79.7667 10.288L74.7987 16H72.7827V3.4H76.1427V9.328L76.0227 11.056H76.3107C76.5027 10.784 76.6947 10.496 76.8867 10.192C77.0947 9.888 77.2947 9.6 77.4867 9.328L82.4787 3.4H84.4947V16H81.1347V10.312ZM96.2988 10.312L96.4428 8.176L94.9308 10.288L89.9628 16H87.9468V3.4H91.3068V9.328L91.1868 11.056H91.4748C91.6668 10.784 91.8588 10.496 92.0508 10.192C92.2588 9.888 92.4588 9.6 92.6508 9.328L97.6428 3.4H99.6588V16H96.2988V10.312ZM92.2668 -1.088C92.3948 -0.416 92.6188 0.0399995 92.9388 0.279999C93.2588 0.519999 93.6748 0.639999 94.1868 0.639999C94.7148 0.639999 95.1308 0.519999 95.4348 0.279999C95.7548 0.0239997 95.9788 -0.424 96.1068 -1.064L98.6028 -0.416C98.3948 0.639999 97.8748 1.432 97.0428 1.96C96.2108 2.488 95.2188 2.752 94.0668 2.752C93.5068 2.752 92.9708 2.696 92.4588 2.584C91.9628 2.472 91.5068 2.288 91.0908 2.032C90.6748 1.776 90.3148 1.448 90.0108 1.048C89.7228 0.648 89.5228 0.16 89.4108 -0.416L92.2668 -1.088ZM119.56 2.32H113.128V16H109.576V-0.800001H123.112V16H119.56V2.32ZM126.24 -0.632C126.96 -0.760001 127.76 -0.856001 128.64 -0.920001C129.52 -1 130.4 -1.04 131.28 -1.04C132.176 -1.04 133.08 -0.968001 133.992 -0.824001C134.904 -0.696001 135.72 -0.424001 136.44 -0.00800133C137.176 0.391999 137.776 0.96 138.24 1.696C138.704 2.416 138.936 3.376 138.936 4.576C138.936 5.632 138.736 6.536 138.336 7.288C137.936 8.024 137.4 8.624 136.728 9.088C136.072 9.552 135.32 9.896 134.472 10.12C133.624 10.328 132.752 10.432 131.856 10.432C131.776 10.432 131.64 10.432 131.448 10.432C131.256 10.432 131.048 10.432 130.824 10.432C130.616 10.416 130.416 10.4 130.224 10.384C130.032 10.368 129.888 10.352 129.792 10.336V16H126.24V-0.632ZM131.52 2.08C131.184 2.08 130.856 2.088 130.536 2.104C130.232 2.12 129.984 2.152 129.792 2.2V7.192C129.856 7.208 129.96 7.224 130.104 7.24C130.248 7.256 130.4 7.272 130.56 7.288C130.72 7.288 130.864 7.296 130.992 7.312C131.136 7.312 131.248 7.312 131.328 7.312C131.792 7.312 132.256 7.28 132.72 7.216C133.184 7.152 133.592 7.016 133.944 6.808C134.312 6.6 134.608 6.32 134.832 5.968C135.056 5.6 135.168 5.112 135.168 4.504C135.168 3.992 135.064 3.584 134.856 3.28C134.648 2.96 134.368 2.712 134.016 2.536C133.68 2.36 133.288 2.24 132.84 2.176C132.408 2.112 131.968 2.08 131.52 2.08ZM140.241 7.6C140.241 6.224 140.417 4.992 140.769 3.904C141.121 2.816 141.625 1.904 142.281 1.168C142.953 0.415999 143.769 -0.152 144.729 -0.536C145.689 -0.936001 146.777 -1.136 147.993 -1.136C149.289 -1.136 150.417 -0.920001 151.377 -0.488001C152.353 -0.0720005 153.161 0.52 153.801 1.288C154.457 2.056 154.945 2.976 155.265 4.048C155.601 5.12 155.769 6.304 155.769 7.6C155.769 8.976 155.585 10.208 155.217 11.296C154.865 12.384 154.353 13.304 153.681 14.056C153.009 14.792 152.193 15.36 151.233 15.76C150.273 16.144 149.193 16.336 147.993 16.336C146.697 16.336 145.561 16.128 144.585 15.712C143.625 15.28 142.817 14.68 142.161 13.912C141.521 13.144 141.041 12.224 140.721 11.152C140.401 10.08 140.241 8.896 140.241 7.6ZM144.009 7.6C144.009 8.432 144.089 9.192 144.249 9.88C144.409 10.568 144.649 11.16 144.969 11.656C145.289 12.152 145.697 12.536 146.193 12.808C146.705 13.08 147.305 13.216 147.993 13.216C149.257 13.216 150.241 12.784 150.945 11.92C151.649 11.056 152.001 9.616 152.001 7.6C152.001 6.8 151.929 6.056 151.785 5.368C151.641 4.68 151.401 4.088 151.065 3.592C150.745 3.08 150.329 2.688 149.817 2.416C149.321 2.128 148.713 1.984 147.993 1.984C146.745 1.984 145.769 2.432 145.065 3.328C144.361 4.224 144.009 5.648 144.009 7.6ZM165.407 14.176C165.071 14.224 164.735 14.256 164.399 14.272C164.063 14.288 163.695 14.296 163.295 14.296C162.479 14.296 161.711 14.16 160.991 13.888C160.271 13.616 159.639 13.2 159.095 12.64C158.567 12.08 158.143 11.384 157.823 10.552C157.519 9.72 157.367 8.736 157.367 7.6C157.367 6.528 157.519 5.56 157.823 4.696C158.143 3.832 158.583 3.104 159.143 2.512C159.703 1.904 160.375 1.44 161.159 1.12C161.959 0.799999 162.831 0.639999 163.775 0.639999C163.999 0.639999 164.271 0.647999 164.591 0.663999C164.927 0.679999 165.199 0.711999 165.407 0.759999V-1.28H168.935V0.831999C169.255 0.751999 169.623 0.704 170.039 0.688C170.455 0.655999 170.799 0.639999 171.071 0.639999C171.903 0.639999 172.679 0.783999 173.399 1.072C174.119 1.36 174.743 1.792 175.271 2.368C175.799 2.928 176.215 3.624 176.519 4.456C176.823 5.288 176.975 6.256 176.975 7.36C176.975 8.48 176.807 9.472 176.471 10.336C176.135 11.2 175.679 11.928 175.103 12.52C174.527 13.096 173.855 13.536 173.087 13.84C172.335 14.144 171.535 14.296 170.687 14.296C170.399 14.296 170.087 14.288 169.751 14.272C169.431 14.24 169.159 14.192 168.935 14.128V16.48H165.407V14.176ZM170.231 3.448C170.055 3.448 169.815 3.456 169.511 3.472C169.223 3.488 168.983 3.52 168.791 3.568V11.44C168.935 11.472 169.111 11.488 169.319 11.488C169.527 11.488 169.743 11.488 169.967 11.488C170.431 11.488 170.871 11.408 171.287 11.248C171.703 11.088 172.063 10.848 172.367 10.528C172.687 10.192 172.935 9.768 173.111 9.256C173.287 8.728 173.375 8.104 173.375 7.384C173.375 6.136 173.087 5.168 172.511 4.48C171.951 3.792 171.191 3.448 170.231 3.448ZM164.207 11.488C164.351 11.488 164.559 11.488 164.831 11.488C165.103 11.472 165.343 11.432 165.551 11.368V3.52C165.183 3.472 164.775 3.448 164.327 3.448C163.863 3.448 163.423 3.528 163.007 3.688C162.607 3.848 162.255 4.096 161.951 4.432C161.647 4.768 161.407 5.2 161.231 5.728C161.055 6.24 160.967 6.856 160.967 7.576C160.967 8.84 161.263 9.808 161.855 10.48C162.463 11.152 163.247 11.488 164.207 11.488ZM193.986 10.312L194.13 8.176L192.618 10.288L187.65 16H185.634V3.4H188.994V9.328L188.874 11.056H189.162C189.354 10.784 189.546 10.496 189.738 10.192C189.946 9.888 190.146 9.6 190.338 9.328L195.33 3.4H197.346V16H193.986V10.312ZM211.751 8.896H210.815V16H207.263V-0.800001H210.815V6.592L211.655 6.232L216.695 -0.800001H220.751L215.423 6.232L214.031 7.144L215.471 8.104L221.567 16H217.175L211.751 8.896ZM222.038 7.6C222.038 6.224 222.214 4.992 222.566 3.904C222.918 2.816 223.422 1.904 224.078 1.168C224.75 0.415999 225.566 -0.152 226.526 -0.536C227.486 -0.936001 228.574 -1.136 229.79 -1.136C231.086 -1.136 232.214 -0.920001 233.174 -0.488001C234.15 -0.0720005 234.958 0.52 235.598 1.288C236.254 2.056 236.742 2.976 237.062 4.048C237.398 5.12 237.566 6.304 237.566 7.6C237.566 8.976 237.382 10.208 237.014 11.296C236.662 12.384 236.15 13.304 235.478 14.056C234.806 14.792 233.99 15.36 233.03 15.76C232.07 16.144 230.99 16.336 229.79 16.336C228.494 16.336 227.358 16.128 226.382 15.712C225.422 15.28 224.614 14.68 223.958 13.912C223.318 13.144 222.838 12.224 222.518 11.152C222.198 10.08 222.038 8.896 222.038 7.6ZM225.806 7.6C225.806 8.432 225.886 9.192 226.046 9.88C226.206 10.568 226.446 11.16 226.766 11.656C227.086 12.152 227.494 12.536 227.99 12.808C228.502 13.08 229.102 13.216 229.79 13.216C231.054 13.216 232.038 12.784 232.742 11.92C233.446 11.056 233.798 9.616 233.798 7.6C233.798 6.8 233.726 6.056 233.582 5.368C233.438 4.68 233.198 4.088 232.862 3.592C232.542 3.08 232.126 2.688 231.614 2.416C231.118 2.128 230.51 1.984 229.79 1.984C228.542 1.984 227.566 2.432 226.862 3.328C226.158 4.224 225.806 5.648 225.806 7.6ZM240.076 -0.632C240.796 -0.760001 241.596 -0.856001 242.476 -0.920001C243.356 -1 244.236 -1.04 245.116 -1.04C246.012 -1.04 246.916 -0.968001 247.828 -0.824001C248.74 -0.696001 249.556 -0.424001 250.276 -0.00800133C251.012 0.391999 251.612 0.96 252.076 1.696C252.54 2.416 252.772 3.376 252.772 4.576C252.772 5.632 252.572 6.536 252.172 7.288C251.772 8.024 251.236 8.624 250.564 9.088C249.908 9.552 249.156 9.896 248.308 10.12C247.46 10.328 246.588 10.432 245.692 10.432C245.612 10.432 245.476 10.432 245.284 10.432C245.092 10.432 244.884 10.432 244.66 10.432C244.452 10.416 244.252 10.4 244.06 10.384C243.868 10.368 243.724 10.352 243.628 10.336V16H240.076V-0.632ZM245.356 2.08C245.02 2.08 244.692 2.088 244.372 2.104C244.068 2.12 243.82 2.152 243.628 2.2V7.192C243.692 7.208 243.796 7.224 243.94 7.24C244.084 7.256 244.236 7.272 244.396 7.288C244.556 7.288 244.7 7.296 244.828 7.312C244.972 7.312 245.084 7.312 245.164 7.312C245.628 7.312 246.092 7.28 246.556 7.216C247.02 7.152 247.428 7.016 247.78 6.808C248.148 6.6 248.444 6.32 248.668 5.968C248.892 5.6 249.004 5.112 249.004 4.504C249.004 3.992 248.9 3.584 248.692 3.28C248.484 2.96 248.204 2.712 247.852 2.536C247.516 2.36 247.124 2.24 246.676 2.176C246.244 2.112 245.804 2.08 245.356 2.08ZM264.942 2.32H258.51V16H254.958V-0.800001H268.494V16H264.942V2.32Z" fill="#333333"/>
</g>
<defs>
<filter id="filter0_d_555_2" x="-34" y="0" width="388" height="461" filterUnits="userSpaceOnUse" color-interpolation-filters="sRGB">
<feFlood flood-opacity="0" result="BackgroundImageFix"/>
<feColorMatrix in="SourceAlpha" type="matrix" values="0 0 0 0 0 0 0 0 0 0 0 0 0 0 0 0 0 0 127 0" result="hardAlpha"/>
<feOffset/>
<feGaussianBlur stdDeviation="25"/>
<feColorMatrix type="matrix" values="0 0 0 0 0 0 0 0 0 0 0 0 0 0 0 0 0 0 0.1 0"/>
<feBlend mode="normal" in2="BackgroundImageFix" result="effect1_dropShadow_555_2"/>
<feBlend mode="normal" in="SourceGraphic" in2="effect1_dropShadow_555_2" result="shape"/>
</filter>
<linearGradient id="paint0_linear_555_2" x1="157" y1="259" x2="157" y2="260" gradientUnits="userSpaceOnUse">
<stop stop-color="#F76201"/>
<stop offset="1" stop-color="#FF4D00"/>
</linearGradient>
<clipPath id="clip0_555_2">
<rect width="320" height="6640" fill="white" transform="translate(0 -3113)"/>
</clipPath>
</defs>
</svg>
